<svg xmlns:xlink="http://www.w3.org/1999/xlink" version="1.1" class="highcharts-root" style="font-family: Roboto; font-size: 12px;" xmlns="http://www.w3.org/2000/svg" width="650" height="400" viewBox="0 0 650 400" aria-label="Interactive chart" aria-hidden="false"><desc aria-hidden="true">Created with Highcharts 10.3.1</desc><defs aria-hidden="true"><clipPath id="highcharts-ut7tzjo-396-"><rect x="0" y="0" width="650" height="400" fill="none"></rect></clipPath></defs><rect fill="#ffffff" class="highcharts-background" x="0" y="0" width="650" height="400" rx="0" ry="0" aria-hidden="true"></rect><g stroke-linejoin="round" class="highcharts-3d-frame highcharts-3d-frame-bottom" data-z-index="-1000" aria-hidden="true"><path fill="none" d="M 68.27590823239336 326.818787821656 L 636.6544431765165 326.99193461595837 L 638.7494714347745 324.89722544065154 L 70.37093649065139 324.72407864634914 Z" visibility="hidden"></path><path fill="none" d="M 71.3455568234836 323.74975785237405 L 638.7321571516483 323.92260247077013 L 636.6544431765165 326 L 69.26784284835173 325.8271553816039 Z"></path><path fill="none" d="M 68.27590823239336 326.818787821656 L 70.37093649065139 324.72407864634914 L 71.3455568234836 323.74975785237405 L 69.26784284835173 325.8271553816039 Z" visibility="hidden"></path><path fill="none" d="M 638.7494714347745 324.89722544065154 L 636.6544431765165 326.99193461595837 L 636.6544431765165 326 L 638.7321571516483 323.92260247077013 Z"></path><path fill="none" d="M 636.6544431765165 326.99193461595837 L 68.27590823239336 326.818787821656 L 69.26784284835173 325.8271553816039 L 636.6544431765165 326 Z"></path><path fill="none" d="M 70.37093649065139 324.72407864634914 L 638.7494714347745 324.89722544065154 L 638.7321571516483 323.92260247077013 L 71.3455568234836 323.74975785237405 Z" visibility="hidden"></path></g><g stroke-linejoin="round" class="highcharts-3d-frame highcharts-3d-frame-left" data-z-index="-1000" aria-hidden="true"><path fill="none" d="M 68.27590823239336 326.818787821656 L 69.26784284835173 325.8271553816039 L 71.3455568234836 323.74975785237405 L 70.37093649065139 324.72407864634914 Z" visibility="hidden"></path><path fill="none" d="M 70.37093649065139 46.98238617801678 L 71.3455568234836 46.99999999999997 L 69.26784284835173 49.07739752922984 L 68.27590823239336 49.07709535332356 Z"></path><path fill="none" d="M 70.37093649065139 324.72407864634914 L 70.37093649065139 46.98238617801678 L 68.27590823239336 49.07709535332356 L 68.27590823239336 326.818787821656 Z" visibility="hidden"></path><path fill="none" d="M 71.3455568234836 46.99999999999997 L 71.3455568234836 323.74975785237405 L 69.26784284835173 325.8271553816039 L 69.26784284835173 49.07739752922984 Z"></path><path fill="none" d="M 68.27590823239336 326.818787821656 L 68.27590823239336 49.07709535332356 L 69.26784284835173 49.07739752922984 L 69.26784284835173 325.8271553816039 Z"></path><path fill="none" d="M 70.37093649065139 46.98238617801678 L 70.37093649065139 324.72407864634914 L 71.3455568234836 323.74975785237405 L 71.3455568234836 46.99999999999997 Z" visibility="hidden"></path></g><g stroke-linejoin="round" class="highcharts-3d-frame highcharts-3d-frame-back" data-z-index="-1000" aria-hidden="true"><path fill="none" d="M 638.7494714347745 324.89722544065154 L 70.37093649065139 324.72407864634914 L 71.3455568234836 323.74975785237405 L 638.7321571516483 323.92260247077013 Z" visibility="hidden"></path><path fill="none" d="M 70.37093649065139 46.98238617801678 L 638.7494714347745 47.15553297231918 L 638.7321571516483 47.172844618396084 L 71.3455568234836 46.99999999999997 Z"></path><path fill="none" d="M 70.37093649065139 324.72407864634914 L 70.37093649065139 46.98238617801678 L 71.3455568234836 46.99999999999997 L 71.3455568234836 323.74975785237405 Z" visibility="hidden"></path><path fill="none" d="M 638.7494714347745 47.15553297231918 L 638.7494714347745 324.89722544065154 L 638.7321571516483 323.92260247077013 L 638.7321571516483 47.172844618396084 Z"></path><path fill="none" d="M 71.3455568234836 46.99999999999997 L 638.7321571516483 47.172844618396084 L 638.7321571516483 323.92260247077013 L 71.3455568234836 323.74975785237405 Z"></path><path fill="none" d="M 70.37093649065139 324.72407864634914 L 638.7494714347745 324.89722544065154 L 638.7494714347745 47.15553297231918 L 70.37093649065139 46.98238617801678 Z" visibility="hidden"></path></g><rect fill="none" class="highcharts-plot-background" x="68" y="47" width="572" height="279" aria-hidden="true"></rect><g class="highcharts-pane-group" data-z-index="0" aria-hidden="true"></g><g class="highcharts-grid highcharts-xaxis-grid" data-z-index="1" aria-hidden="true"><path fill="none" stroke="#e6e6e6" stroke-width="1" stroke-dasharray="none" data-z-index="1" class="highcharts-grid-line" d="M 165.08337803154578 47.028555623144086 L 165.08337803154578 323.7783134755182 M 163.00566405641385 325.85571100474806 L 165.08337803154578 323.7783134755182" opacity="1"></path><path fill="none" stroke="#e6e6e6" stroke-width="1" stroke-dasharray="none" data-z-index="1" class="highcharts-grid-line" d="M 260.30910116354545 47.05756451014764 L 260.30910116354545 323.8073223625217 M 258.2313871884135 325.8847198917516 L 260.30910116354545 323.8073223625217" opacity="1"></path><path fill="none" stroke="#e6e6e6" stroke-width="1" stroke-dasharray="none" data-z-index="1" class="highcharts-grid-line" d="M 354.5428896795868 47.086271221244886 L 354.5428896795868 323.83602907361893 M 352.4651757044549 325.9134266028488 L 354.5428896795868 323.83602907361893" opacity="1"></path><path fill="none" stroke="#e6e6e6" stroke-width="1" stroke-dasharray="none" data-z-index="1" class="highcharts-grid-line" d="M 448.77667819562816 47.11497793234216 L 448.77667819562816 323.86473578471623 M 446.69896422049624 325.9421333139461 L 448.77667819562816 323.86473578471623" opacity="1"></path><path fill="none" stroke="#e6e6e6" stroke-width="1" stroke-dasharray="none" data-z-index="1" class="highcharts-grid-line" d="M 544.0024013276278 47.143986819345685 L 544.0024013276278 323.8937446717198 M 541.9246873524959 325.97114220094966 L 544.0024013276278 323.8937446717198" opacity="1"></path><path fill="none" stroke="#e6e6e6" stroke-width="1" stroke-dasharray="none" data-z-index="1" class="highcharts-grid-line" d="M 639.2281244596275 47.17299570634921 L 639.2281244596275 323.9227535587233 M 637.1504104844955 326.00015108795316 L 639.2281244596275 323.9227535587233" opacity="1"></path><path fill="none" stroke="#e6e6e6" stroke-width="1" stroke-dasharray="none" data-z-index="1" class="highcharts-grid-line" d="M 70.84958951550442 46.99984891204684 L 70.84958951550442 323.74960676442095 M 68.77187554037255 325.8270042936508 L 70.84958951550442 323.74960676442095" opacity="1"></path></g><g class="highcharts-grid highcharts-zaxis-grid" data-z-index="1" aria-hidden="true"></g><g class="highcharts-grid highcharts-yaxis-grid" data-z-index="1" aria-hidden="true"><path fill="none" stroke="#e6e6e6" stroke-width="1" stroke-dasharray="none" data-z-index="1" class="highcharts-grid-line" d="M 71.3455568234836 324.2457251603532 L 638.7321571516483 324.4185697787493 M 69.26784284835173 326.32312268958304 L 71.3455568234836 324.2457251603532" opacity="1"></path><path fill="none" stroke="#e6e6e6" stroke-width="1" stroke-dasharray="none" data-z-index="1" class="highcharts-grid-line" d="M 71.3455568234836 254.8103020432701 L 638.7321571516483 254.98314666166618 M 69.26784284835173 256.88769957249997 L 71.3455568234836 254.8103020432701" opacity="1"></path><path fill="none" stroke="#e6e6e6" stroke-width="1" stroke-dasharray="none" data-z-index="1" class="highcharts-grid-line" d="M 71.3455568234836 186.36681354214534 L 638.7321571516483 186.53965816054145 M 69.26784284835173 188.4442110713752 L 71.3455568234836 186.36681354214534" opacity="1"></path><path fill="none" stroke="#e6e6e6" stroke-width="1" stroke-dasharray="none" data-z-index="1" class="highcharts-grid-line" d="M 71.3455568234836 116.93139042506226 L 638.7321571516483 117.10423504345835 M 69.26784284835173 119.00878795429213 L 71.3455568234836 116.93139042506226" opacity="1"></path><path fill="none" stroke="#e6e6e6" stroke-width="1" stroke-dasharray="none" data-z-index="1" class="highcharts-grid-line" d="M 71.3455568234836 46.50403269202084 L 638.7321571516483 46.676877310416955 M 69.26784284835173 48.58143022125071 L 71.3455568234836 46.50403269202084" opacity="1"></path></g><rect fill="none" class="highcharts-plot-border" data-z-index="1" x="68" y="47" width="572" height="279" aria-hidden="true"></rect><g class="highcharts-axis highcharts-xaxis" data-z-index="2" aria-hidden="true"><path fill="none" class="highcharts-axis-line" stroke="#ccd6eb" stroke-width="1" data-z-index="7" d="M 0 0"></path></g><g class="highcharts-axis highcharts-zaxis" data-z-index="2" aria-hidden="true"><path fill="none" class="highcharts-axis-line" data-z-index="7" d="M 0 0"></path></g><g class="highcharts-axis highcharts-yaxis" data-z-index="2" aria-hidden="true"><text x="26.081111549059074" data-z-index="7" text-anchor="middle" transform="translate(0,0) rotate(270 26.081111549059074 187.4522764554169)" class="highcharts-axis-title" style="color: rgb(102, 102, 102); fill: rgb(102, 102, 102);" y="187.4522764554169" z="5.444118407291256">Value</text><path fill="none" class="highcharts-axis-line" data-z-index="7" d="M 0 0"></path></g><g class="highcharts-series-group" data-z-index="3" aria-hidden="false"><g class="highcharts-markers highcharts-series-0 highcharts-column-series" transform="translate(68,47) scale(1 1)" visibility="visible" data-z-index="10" opacity="1" clip-path="none" aria-hidden="false"><g stroke-linejoin="round" data-z-index="24600395" stroke="#6f58e9" stroke-width="1" opacity="1" class="highcharts-point" tabindex="-1" role="img" aria-label="Category 1, 36. Item 1." style="outline: none;"><path fill="#6f58e9" d="M 25.587555222456842 279.3132143532101 L 71.21654755654004 279.3271144448994 L 71.21654755654004 229.7303836469829 L 25.587555222456842 229.71648355529368 Z" class="highcharts-3d-front" data-z-index="0"></path><path fill="rgb(136,113,255)" d="M 71.21654755654004 229.7303836469829 L 79.87368911958964 221.07456060852513 L 34.24469678550645 221.06066051683592 L 25.587555222456842 229.71648355529368 Z" class="highcharts-3d-top" data-z-index="0"></path><path fill="rgb(86,63,208)" d="M 71.21654755654004 229.7303836469829 L 71.21654755654004 279.3271144448994 L 79.87368911958964 270.6712914064416 L 79.87368911958964 221.07456060852513 Z" class="highcharts-3d-side" data-z-index="0"></path></g><g stroke-linejoin="round" data-z-index="24601565" stroke="#94d13d" stroke-width="1" opacity="1" class="highcharts-point" tabindex="-1" role="img" aria-label="Category 1, 84. Item 2." style="outline: none;"><path fill="#94d13d" d="M 25.587555222456842 229.71648355529368 L 71.21654755654004 229.7303836469829 L 71.21654755654004 113.67403357985829 L 25.587555222456842 113.6601334881691 Z" class="highcharts-3d-front" data-z-index="0"></path><path fill="rgb(173,234,86)" d="M 71.21654755654004 113.67403357985829 L 79.87368911958964 105.01821054140053 L 34.24469678550645 105.00431044971134 L 25.587555222456842 113.6601334881691 Z" class="highcharts-3d-top" data-z-index="0"></path><path fill="rgb(123,184,36)" d="M 71.21654755654004 113.67403357985829 L 71.21654755654004 229.7303836469829 L 79.87368911958964 221.07456060852513 L 79.87368911958964 105.01821054140053 Z" class="highcharts-3d-side" data-z-index="0"></path></g><g stroke-linejoin="round" data-z-index="119600845" stroke="#6f58e9" stroke-width="1" opacity="1" class="highcharts-point" tabindex="-1" role="img" aria-label="Category 2, 68. Item 1." style="outline: none;"><path fill="#6f58e9" d="M 119.8213437384982 279.3419210643074 L 165.4503360725814 279.35582115599664 L 165.4503360725814 185.1220326399553 L 119.8213437384982 185.1081325482661 Z" class="highcharts-3d-front" data-z-index="0"></path><path fill="rgb(136,113,255)" d="M 165.4503360725814 185.1220326399553 L 174.10747763563103 176.46620960149755 L 128.47848530154783 176.45230950980834 L 119.8213437384982 185.1081325482661 Z" class="highcharts-3d-top" data-z-index="0"></path><path fill="rgb(86,63,208)" d="M 165.4503360725814 185.1220326399553 L 165.4503360725814 279.35582115599664 L 174.10747763563103 270.6999981175388 L 174.10747763563103 176.46620960149755 Z" class="highcharts-3d-side" data-z-index="0"></path></g><g stroke-linejoin="round" data-z-index="119601885" stroke="#94d13d" stroke-width="1" opacity="1" class="highcharts-point" tabindex="-1" role="img" aria-label="Category 2, 75. Item 2." style="outline: none;"><path fill="#94d13d" d="M 119.8213437384982 185.1081325482661 L 165.4503360725814 185.1220326399553 L 165.4503360725814 81.96083258028898 L 119.8213437384982 81.9469324885998 Z" class="highcharts-3d-front" data-z-index="0"></path><path fill="rgb(173,234,86)" d="M 165.4503360725814 81.96083258028898 L 174.10747763563103 73.30500954183124 L 128.47848530154783 73.29110945014203 L 119.8213437384982 81.9469324885998 Z" class="highcharts-3d-top" data-z-index="0"></path><path fill="rgb(123,184,36)" d="M 165.4503360725814 81.96083258028898 L 165.4503360725814 185.1220326399553 L 174.10747763563103 176.46620960149755 L 174.10747763563103 73.30500954183124 Z" class="highcharts-3d-side" data-z-index="0"></path></g><g stroke-linejoin="round" data-z-index="214600775" stroke="#6f58e9" stroke-width="1" opacity="1" class="highcharts-point" tabindex="-1" role="img" aria-label="Category 3, 63. Item 1." style="outline: none;"><path fill="#6f58e9" d="M 214.05513225453956 279.37062777540467 L 259.68412458862275 279.3845278670939 L 259.68412458862275 192.09428166276086 L 214.05513225453956 192.08038157107165 Z" class="highcharts-3d-front" data-z-index="0"></path><path fill="rgb(136,113,255)" d="M 259.68412458862275 192.09428166276086 L 268.34126615167236 183.4384586243031 L 222.71227381758916 183.4245585326139 L 214.05513225453956 192.08038157107165 Z" class="highcharts-3d-top" data-z-index="0"></path><path fill="rgb(86,63,208)" d="M 259.68412458862275 192.09428166276086 L 259.68412458862275 279.3845278670939 L 268.34126615167236 270.7287048286361 L 268.34126615167236 183.4384586243031 Z" class="highcharts-3d-side" data-z-index="0"></path></g><g stroke-linejoin="round" data-z-index="214601095" stroke="#94d13d" stroke-width="1" opacity="1" class="highcharts-point" tabindex="-1" role="img" aria-label="Category 3, 23. Item 2." style="outline: none;"><path fill="#94d13d" d="M 214.05513225453956 192.08038157107165 L 259.68412458862275 192.09428166276086 L 259.68412458862275 160.3523739520943 L 214.05513225453956 160.3384738604051 Z" class="highcharts-3d-front" data-z-index="0"></path><path fill="rgb(173,234,86)" d="M 259.68412458862275 160.3523739520943 L 268.34126615167236 151.69655091363654 L 222.71227381758916 151.68265082194733 L 214.05513225453956 160.3384738604051 Z" class="highcharts-3d-top" data-z-index="0"></path><path fill="rgb(123,184,36)" d="M 259.68412458862275 160.3523739520943 L 259.68412458862275 192.09428166276086 L 268.34126615167236 183.4384586243031 L 268.34126615167236 151.69655091363654 Z" class="highcharts-3d-side" data-z-index="0"></path></g><g stroke-linejoin="round" data-z-index="310600605" stroke="#6f58e9" stroke-width="1" opacity="1" class="highcharts-point" tabindex="-1" role="img" aria-label="Category 4, 51. Item 1." style="outline: none;"><path fill="#6f58e9" d="M 309.2808553865392 279.3996366624082 L 354.9098477206224 279.41353675409744 L 354.9098477206224 208.986179021056 L 309.2808553865392 208.9722789293668 Z" class="highcharts-3d-front" data-z-index="0"></path><path fill="rgb(136,113,255)" d="M 354.9098477206224 208.986179021056 L 363.566989283672 200.33035598259823 L 317.93799694958886 200.31645589090905 L 309.2808553865392 208.9722789293668 Z" class="highcharts-3d-top" data-z-index="0"></path><path fill="rgb(86,63,208)" d="M 354.9098477206224 208.986179021056 L 354.9098477206224 279.41353675409744 L 363.566989283672 270.7577137156397 L 363.566989283672 200.33035598259823 Z" class="highcharts-3d-side" data-z-index="0"></path></g><g stroke-linejoin="round" data-z-index="310600825" stroke="#94d13d" stroke-width="1" opacity="1" class="highcharts-point" tabindex="-1" role="img" aria-label="Category 4, 16. Item 2." style="outline: none;"><path fill="#94d13d" d="M 309.2808553865392 208.9722789293668 L 354.9098477206224 208.986179021056 L 354.9098477206224 187.16361746997273 L 309.2808553865392 187.14971737828355 Z" class="highcharts-3d-front" data-z-index="0"></path><path fill="rgb(173,234,86)" d="M 354.9098477206224 187.16361746997273 L 363.566989283672 178.50779443151498 L 317.93799694958886 178.4938943398258 L 309.2808553865392 187.14971737828355 Z" class="highcharts-3d-top" data-z-index="0"></path><path fill="rgb(123,184,36)" d="M 354.9098477206224 187.16361746997273 L 354.9098477206224 208.986179021056 L 363.566989283672 200.33035598259823 L 363.566989283672 178.50779443151498 Z" class="highcharts-3d-side" data-z-index="0"></path></g><g stroke-linejoin="round" data-z-index="405601195" stroke="#6f58e9" stroke-width="1" opacity="1" class="highcharts-point" tabindex="-1" role="img" aria-label="Category 5, 93. Item 1." style="outline: none;"><path fill="#6f58e9" d="M 403.5146439025806 279.42834337350547 L 449.1436362366637 279.4422434651947 L 449.1436362366637 150.49074339061178 L 403.5146439025806 150.4768432989226 Z" class="highcharts-3d-front" data-z-index="0"></path><path fill="rgb(136,113,255)" d="M 449.1436362366637 150.49074339061178 L 457.8007777997134 141.83492035215403 L 412.1717854656302 141.82102026046485 L 403.5146439025806 150.4768432989226 Z" class="highcharts-3d-top" data-z-index="0"></path><path fill="rgb(86,63,208)" d="M 449.1436362366637 150.49074339061178 L 449.1436362366637 279.4422434651947 L 457.8007777997134 270.7864204267369 L 457.8007777997134 141.83492035215403 Z" class="highcharts-3d-side" data-z-index="0"></path></g><g stroke-linejoin="round" data-z-index="405602085" stroke="#94d13d" stroke-width="1" opacity="1" class="highcharts-point" tabindex="-1" role="img" aria-label="Category 5, 64. Item 2." style="outline: none;"><path fill="#94d13d" d="M 403.5146439025806 150.4768432989226 L 449.1436362366637 150.49074339061178 L 449.1436362366637 62.20856257032044 L 403.5146439025806 62.194662478631244 Z" class="highcharts-3d-front" data-z-index="0"></path><path fill="rgb(173,234,86)" d="M 449.1436362366637 62.20856257032044 L 457.8007777997134 53.552739531862684 L 412.1717854656302 53.53883944017349 L 403.5146439025806 62.194662478631244 Z" class="highcharts-3d-top" data-z-index="0"></path><path fill="rgb(123,184,36)" d="M 449.1436362366637 62.20856257032044 L 449.1436362366637 150.49074339061178 L 457.8007777997134 141.83492035215403 L 457.8007777997134 53.552739531862684 Z" class="highcharts-3d-side" data-z-index="0"></path></g><g stroke-linejoin="round" data-z-index="500600575" stroke="#6f58e9" stroke-width="1" opacity="1" class="highcharts-point" tabindex="-1" role="img" aria-label="Category 6, 49. Item 1." style="outline: none;"><path fill="#6f58e9" d="M 497.74843241862186 279.45705008460277 L 543.3774247527051 279.4709501762919 L 543.3774247527051 212.01939629112553 L 497.74843241862186 212.00549619943632 Z" class="highcharts-3d-front" data-z-index="0"></path><path fill="rgb(136,113,255)" d="M 543.3774247527051 212.01939629112553 L 552.0345663157548 203.36357325266775 L 506.4055739816715 203.34967316097857 L 497.74843241862186 212.00549619943632 Z" class="highcharts-3d-top" data-z-index="0"></path><path fill="rgb(86,63,208)" d="M 543.3774247527051 212.01939629112553 L 543.3774247527051 279.4709501762919 L 552.0345663157548 270.81512713783417 L 552.0345663157548 203.36357325266775 Z" class="highcharts-3d-side" data-z-index="0"></path></g><g stroke-linejoin="round" data-z-index="500601385" stroke="#94d13d" stroke-width="1" opacity="1" class="highcharts-point" tabindex="-1" role="img" aria-label="Category 6, 58. Item 2." style="outline: none;"><path fill="#94d13d" d="M 497.74843241862186 212.00549619943632 L 543.3774247527051 212.01939629112553 L 543.3774247527051 131.67269239850077 L 497.74843241862186 131.6587923068116 Z" class="highcharts-3d-front" data-z-index="0"></path><path fill="rgb(173,234,86)" d="M 543.3774247527051 131.67269239850077 L 552.0345663157548 123.01686936004302 L 506.4055739816715 123.00296926835384 L 497.74843241862186 131.6587923068116 Z" class="highcharts-3d-top" data-z-index="0"></path><path fill="rgb(123,184,36)" d="M 543.3774247527051 131.67269239850077 L 543.3774247527051 212.01939629112553 L 552.0345663157548 203.36357325266775 L 552.0345663157548 123.01686936004302 Z" class="highcharts-3d-side" data-z-index="0"></path></g></g></g><text x="325" text-anchor="middle" class="highcharts-title" data-z-index="4" style="color: rgb(51, 51, 51); font-size: 18px; fill: rgb(51, 51, 51);" y="24" aria-hidden="true">Chart title</text><text x="325" text-anchor="middle" class="highcharts-subtitle" data-z-index="4" style="color: rgb(102, 102, 102); fill: rgb(102, 102, 102);" y="46" aria-hidden="true"></text><text x="10" text-anchor="start" class="highcharts-caption" data-z-index="4" style="color: rgb(102, 102, 102); fill: rgb(102, 102, 102);" y="397" aria-hidden="true"></text><g class="highcharts-legend highcharts-no-tooltip" data-z-index="7" transform="translate(251,359)" aria-hidden="true"><rect fill="none" class="highcharts-legend-box" rx="0" ry="0" x="0" y="0" width="147" height="26"></rect><g data-z-index="1"><g><g class="highcharts-legend-item highcharts-column-series highcharts-color-undefined highcharts-series-1" data-z-index="1" transform="translate(8,3)"><text x="21" text-anchor="start" data-z-index="2" y="15" style="color: rgb(51, 51, 51); cursor: pointer; font-size: 12px; font-weight: bold; fill: rgb(51, 51, 51);">Item 1</text><rect x="2" y="4" width="12" height="12" fill="#6f58e9" rx="6" ry="6" class="highcharts-point" data-z-index="3"></rect></g><g class="highcharts-legend-item highcharts-column-series highcharts-color-undefined highcharts-series-0" data-z-index="1" transform="translate(83.78125,3)"><text x="21" y="15" text-anchor="start" data-z-index="2" style="color: rgb(51, 51, 51); cursor: pointer; font-size: 12px; font-weight: bold; fill: rgb(51, 51, 51);">Item 2</text><rect x="2" y="4" width="12" height="12" fill="#94d13d" rx="6" ry="6" class="highcharts-point" data-z-index="3"></rect></g></g></g></g><g class="highcharts-axis-labels highcharts-xaxis-labels" data-z-index="7" aria-hidden="true"><text x="116.5500595423621" style="color: rgb(102, 102, 102); cursor: default; font-size: 11px; fill: rgb(102, 102, 102);" text-anchor="middle" transform="translate(0,0)" y="344.6911876927468" z="7.034272440382509" opacity="1">Category 1</text><text x="211.11449293039618" text-anchor="middle" transform="translate(0,0)" style="color: rgb(102, 102, 102); cursor: default; font-size: 11px; fill: rgb(102, 102, 102);" y="344.7199951291461" z="5.38389551438312" opacity="1">Category 2</text><text x="305.6789263184203" text-anchor="middle" transform="translate(0,0)" style="color: rgb(102, 102, 102); cursor: default; font-size: 11px; fill: rgb(102, 102, 102);" y="344.7488025655455" z="3.7335185883839017" opacity="1">Category 3</text><text x="400.2433597064544" text-anchor="middle" transform="translate(0,0)" style="color: rgb(102, 102, 102); cursor: default; font-size: 11px; fill: rgb(102, 102, 102);" y="344.7776100019448" z="2.083141662384506" opacity="1">Category 4</text><text x="494.80779309447854" text-anchor="middle" transform="translate(0,0)" style="color: rgb(102, 102, 102); cursor: default; font-size: 11px; fill: rgb(102, 102, 102);" y="344.80641743834417" z="0.43276473638528756" opacity="1">Category 5</text><text x="589.3722264825027" text-anchor="middle" transform="translate(0,0)" style="color: rgb(102, 102, 102); cursor: default; font-size: 11px; fill: rgb(102, 102, 102);" y="344.8352248747436" z="-1.2176121896139378" opacity="1">Category 6</text></g><g class="highcharts-axis-labels highcharts-zaxis-labels" data-z-index="7" aria-hidden="true"></g><g class="highcharts-axis-labels highcharts-yaxis-labels" data-z-index="7" aria-hidden="true"><text x="54.38655711708077" style="color: rgb(102, 102, 102); cursor: default; font-size: 11px; fill: rgb(102, 102, 102);" text-anchor="end" transform="translate(0,0)" y="330.78682846139554" z="7.946032319012595" opacity="1">0</text><text x="54.38655711708077" style="color: rgb(102, 102, 102); cursor: default; font-size: 11px; fill: rgb(102, 102, 102);" text-anchor="end" transform="translate(0,0)" y="261.35140534431247" z="6.7340325001856485" opacity="1">50</text><text x="54.38655711708077" style="color: rgb(102, 102, 102); cursor: default; font-size: 11px; fill: rgb(102, 102, 102);" text-anchor="end" transform="translate(0,0)" y="191.91598222722936" z="5.522032681358702" opacity="1">100</text><text x="54.38655711708077" text-anchor="end" transform="translate(0,0)" style="color: rgb(102, 102, 102); cursor: default; font-size: 11px; fill: rgb(102, 102, 102);" y="122.48055911014626" z="4.310032862531756" opacity="1">150</text><text x="54.38655711708077" text-anchor="end" transform="translate(0,0)" style="color: rgb(102, 102, 102); cursor: default; font-size: 11px; fill: rgb(102, 102, 102);" y="54.0370706090215" z="3.115347326830907" opacity="1">200</text></g><text x="640" class="highcharts-credits" text-anchor="end" data-z-index="8" y="395" style="cursor: pointer; color: rgb(153, 153, 153); font-size: 9px; fill: rgb(153, 153, 153);" aria-label="Chart credits: Highcharts.com" aria-hidden="false">Highcharts.com</text><g stroke-linejoin="round" class="highcharts-3d-frame highcharts-3d-frame-top" data-z-index="1000" aria-hidden="true"><path fill="none" d="M 70.37093649065139 46.98238617801678 L 638.7494714347745 47.15553297231918 L 636.6544431765165 49.250242147625954 L 68.27590823239336 49.07709535332356 Z" visibility="hidden"></path><path fill="none" d="M 69.26784284835173 49.07739752922984 L 636.6544431765165 49.250242147625954 L 638.7321571516483 47.172844618396084 L 71.3455568234836 46.99999999999997 Z" visibility="hidden"></path><path fill="none" d="M 70.37093649065139 46.98238617801678 L 68.27590823239336 49.07709535332356 L 69.26784284835173 49.07739752922984 L 71.3455568234836 46.99999999999997 Z" visibility="hidden"></path><path fill="none" d="M 636.6544431765165 49.250242147625954 L 638.7494714347745 47.15553297231918 L 638.7321571516483 47.172844618396084 L 636.6544431765165 49.250242147625954 Z" visibility="hidden"></path><path fill="none" d="M 68.27590823239336 49.07709535332356 L 636.6544431765165 49.250242147625954 L 636.6544431765165 49.250242147625954 L 69.26784284835173 49.07739752922984 Z" visibility="hidden"></path><path fill="none" d="M 638.7494714347745 47.15553297231918 L 70.37093649065139 46.98238617801678 L 71.3455568234836 46.99999999999997 L 638.7321571516483 47.172844618396084 Z" visibility="hidden"></path></g><g stroke-linejoin="round" class="highcharts-3d-frame highcharts-3d-frame-right" data-z-index="1000" aria-hidden="true"><path fill="none" d="M 638.7494714347745 324.89722544065154 L 638.7321571516483 323.92260247077013 L 636.6544431765165 326 L 636.6544431765165 326.99193461595837 Z" visibility="hidden"></path><path fill="none" d="M 636.6544431765165 49.250242147625954 L 636.6544431765165 49.250242147625954 L 638.7321571516483 47.172844618396084 L 638.7494714347745 47.15553297231918 Z" visibility="hidden"></path><path fill="none" d="M 636.6544431765165 49.250242147625954 L 636.6544431765165 326 L 638.7321571516483 323.92260247077013 L 638.7321571516483 47.172844618396084 Z" visibility="hidden"></path><path fill="none" d="M 636.6544431765165 326.99193461595837 L 636.6544431765165 49.250242147625954 L 638.7494714347745 47.15553297231918 L 638.7494714347745 324.89722544065154 Z" visibility="hidden"></path><path fill="none" d="M 636.6544431765165 49.250242147625954 L 636.6544431765165 326.99193461595837 L 636.6544431765165 326 L 636.6544431765165 49.250242147625954 Z" visibility="hidden"></path><path fill="none" d="M 638.7494714347745 324.89722544065154 L 638.7494714347745 47.15553297231918 L 638.7321571516483 47.172844618396084 L 638.7321571516483 323.92260247077013 Z" visibility="hidden"></path></g><g stroke-linejoin="round" class="highcharts-3d-frame highcharts-3d-frame-front" data-z-index="1000" aria-hidden="true"><path fill="none" d="M 68.27590823239336 326.818787821656 L 636.6544431765165 326.99193461595837 L 636.6544431765165 326 L 69.26784284835173 325.8271553816039 Z" visibility="hidden"></path><path fill="none" d="M 636.6544431765165 49.250242147625954 L 68.27590823239336 49.07709535332356 L 69.26784284835173 49.07739752922984 L 636.6544431765165 49.250242147625954 Z" visibility="hidden"></path><path fill="none" d="M 68.27590823239336 49.07709535332356 L 68.27590823239336 326.818787821656 L 69.26784284835173 325.8271553816039 L 69.26784284835173 49.07739752922984 Z" visibility="hidden"></path><path fill="none" d="M 636.6544431765165 326.99193461595837 L 636.6544431765165 49.250242147625954 L 636.6544431765165 49.250242147625954 L 636.6544431765165 326 Z" visibility="hidden"></path><path fill="none" d="M 636.6544431765165 49.250242147625954 L 69.26784284835173 49.07739752922984 L 69.26784284835173 325.8271553816039 L 636.6544431765165 326 Z" visibility="hidden"></path><path fill="none" d="M 636.6544431765165 326.99193461595837 L 68.27590823239336 326.818787821656 L 68.27590823239336 49.07709535332356 L 636.6544431765165 49.250242147625954 Z" visibility="hidden"></path></g></svg>